<svg width="16" height="17" viewBox="0 0 16 17" fill="none" xmlns="http://www.w3.org/2000/svg">
<path d="M14.4201 11.7302H5.11543L5.58262 10.7786L13.3451 10.7646C13.6076 10.7646 13.8326 10.5771 13.8795 10.3177L14.9545 4.3005C14.9826 4.14269 14.9404 3.98019 14.8373 3.85675C14.7863 3.796 14.7228 3.74707 14.651 3.71334C14.5792 3.67961 14.501 3.6619 14.4217 3.66144L4.54668 3.62863L4.4623 3.23175C4.40918 2.97863 4.18105 2.79425 3.92168 2.79425H1.50762C1.36133 2.79425 1.22104 2.85236 1.1176 2.9558C1.01417 3.05924 0.956055 3.19953 0.956055 3.34581C0.956055 3.4921 1.01417 3.63239 1.1176 3.73583C1.22104 3.83926 1.36133 3.89738 1.50762 3.89738H3.4748L3.84355 5.6505L4.75137 10.0458L3.58262 11.9536C3.52192 12.0355 3.48536 12.1328 3.47708 12.2344C3.4688 12.336 3.48912 12.438 3.53574 12.5286C3.62949 12.7146 3.81855 12.8318 4.02793 12.8318H5.00918C4.79999 13.1096 4.687 13.448 4.6873 13.7958C4.6873 14.6802 5.40605 15.3989 6.29043 15.3989C7.1748 15.3989 7.89355 14.6802 7.89355 13.7958C7.89355 13.4474 7.77793 13.1083 7.57168 12.8318H10.0889C9.87968 13.1096 9.76669 13.448 9.76699 13.7958C9.76699 14.6802 10.4857 15.3989 11.3701 15.3989C12.2545 15.3989 12.9732 14.6802 12.9732 13.7958C12.9732 13.4474 12.8576 13.1083 12.6514 12.8318H14.4217C14.7248 12.8318 14.9732 12.5849 14.9732 12.2802C14.9723 12.1341 14.9137 11.9942 14.81 11.8912C14.7064 11.7881 14.5663 11.7303 14.4201 11.7302V11.7302ZM4.77637 4.71613L13.7732 4.74581L12.892 9.68019L5.8248 9.69269L4.77637 4.71613ZM6.29043 14.2896C6.01855 14.2896 5.79668 14.0677 5.79668 13.7958C5.79668 13.5239 6.01855 13.3021 6.29043 13.3021C6.5623 13.3021 6.78418 13.5239 6.78418 13.7958C6.78418 13.9268 6.73216 14.0524 6.63956 14.1449C6.54697 14.2375 6.42138 14.2896 6.29043 14.2896V14.2896ZM11.3701 14.2896C11.0982 14.2896 10.8764 14.0677 10.8764 13.7958C10.8764 13.5239 11.0982 13.3021 11.3701 13.3021C11.642 13.3021 11.8639 13.5239 11.8639 13.7958C11.8639 13.9268 11.8118 14.0524 11.7193 14.1449C11.6267 14.2375 11.5011 14.2896 11.3701 14.2896V14.2896Z" fill="white"/>
</svg>
